<svg xmlns="http://www.w3.org/2000/svg" viewBox="0 0 40 40" fill="none">
  <rect width="40" height="40" rx="5" fill="#0D0D0D"/>
  <rect x="1" y="1" width="38" height="38" rx="4" stroke="#3A8B8C" stroke-width="1" stroke-opacity="0.5" fill="none"/>
  <path d="M 4,10.5 C 7,6.5 10,6.5 13,10.5 C 16,14.5 19,14.5 22,10.5 C 25,6.5 28,6.5 31,10.5" stroke="#E8B830" stroke-width="4.5" stroke-linecap="round"/>
  <path d="M 6,19 C 9,15 12,15 15,19 C 18,23 21,23 24,19 C 27,15 29,15 31,19" stroke="#E8B830" stroke-width="4.5" stroke-linecap="round"/>
  <path d="M 4,27 C 7,23 10,23 13,27 C 16,31 19,31 22,27 C 25,23 27,23 29,27" stroke="#E8B830" stroke-width="4.5" stroke-linecap="round"/>
  <polygon points="20,0 22.5,3 17.5,3" fill="#D44B3A" opacity="0.5"/>
</svg>
